<?xml version="1.0" encoding="iso-8859-1"?>
<!-- Generator: Adobe Illustrator 19.0.0, SVG Export Plug-In . SVG Version: 6.00 Build 0)  -->
<svg version="1.1" id="Layer_1" xmlns="http://www.w3.org/2000/svg" xmlns:xlink="http://www.w3.org/1999/xlink" x="0px" y="0px"
	 viewBox="0 0 496.159 496.159" style="enable-background:new 0 0 496.159 496.159;" xml:space="preserve">
<path style="fill:#48A1AF;" d="M248.083,0.003C111.071,0.003,0,111.063,0,248.085c0,137.001,111.07,248.07,248.083,248.07
	c137.006,0,248.076-111.069,248.076-248.07C496.159,111.062,385.089,0.003,248.083,0.003z"/>
<rect x="106.18" y="185.119" style="fill:#F2F2F0;" width="283.9" height="141.44"/>
<polygon style="fill:#E9EADC;" points="415.101,349.454 415.101,337.175 402.366,337.175 402.366,324.895 390.086,324.895 
	390.086,312.161 106.074,312.161 106.074,324.895 93.794,324.895 93.794,337.175 81.059,337.175 81.059,349.454 66.961,349.454 
	66.961,362.189 429.199,362.189 429.199,349.454 "/>
<polygon style="fill:#F2F2F0;" points="277.295,312.161 218.865,312.161 179.752,362.189 316.408,362.189 "/>
<g>
	<path style="fill:#E0E0D3;" d="M149.717,186.635h-28.856c0,0-3.916,29.108-3.916,62.46c0,33.353,3.916,63.066,3.916,63.066h28.856
		c0,0,3.916-23.194,3.916-63.066C153.632,209.224,149.717,186.635,149.717,186.635z"/>
	<path style="fill:#E0E0D3;" d="M220.211,186.635h-28.856c0,0-3.916,29.108-3.916,62.46c0,33.353,3.916,63.066,3.916,63.066h28.856
		c0,0,3.916-23.194,3.916-63.066C224.127,209.224,220.211,186.635,220.211,186.635z"/>
	<path style="fill:#E0E0D3;" d="M375.299,186.635h-28.856c0,0-3.916,29.108-3.916,62.46c0,33.353,3.916,63.066,3.916,63.066h28.856
		c0,0,3.916-23.194,3.916-63.066C379.215,209.224,375.299,186.635,375.299,186.635z"/>
</g>
<path style="fill:#E8E8DD;" d="M346.443,186.635c0,0-3.916,29.108-3.916,62.46c0,33.353,3.916,63.066,3.916,63.066h14.637V186.635
	H346.443z"/>
<path style="fill:#E0E0D3;" d="M304.805,186.635h-28.856c0,0-3.916,29.108-3.916,62.46c0,33.353,3.916,63.066,3.916,63.066h28.856
	c0,0,3.916-23.194,3.916-63.066C308.72,209.224,304.805,186.635,304.805,186.635z"/>
<g>
	<path style="fill:#E8E8DD;" d="M275.943,186.635c0,0-3.916,29.108-3.916,62.46c0,33.353,3.916,63.066,3.916,63.066h14.637V186.635
		H275.943z"/>
	<path style="fill:#E8E8DD;" d="M191.277,186.635c0,0-3.916,29.108-3.916,62.46c0,33.353,3.916,63.066,3.916,63.066h14.637V186.635
		H191.277z"/>
	<path style="fill:#E8E8DD;" d="M120.944,186.635c0,0-3.916,29.108-3.916,62.46c0,33.353,3.916,63.066,3.916,63.066h14.636V186.635
		H120.944z"/>
</g>
<path style="fill:#D1D1C7;" d="M254.26,272.959h-12.034c-4.311,0-5.854,1.651-5.854,5.962v33.175h23.418v-33.175
	C259.789,274.611,258.571,272.959,254.26,272.959z"/>
<polygon style="fill:#E9EADC;" points="246.351,85.972 86.177,150.529 86.177,188.73 409.983,188.73 409.983,150.529 "/>
<polygon style="fill:#EFEFE8;" points="246.938,103.426 141.177,146.053 141.177,171.276 354.983,171.276 354.983,146.053 "/>
<rect x="86.18" y="150.529" style="fill:#F2F2F0;" width="323.81" height="29.11"/>
<rect x="86.18" y="179.059" style="fill:#E0E0D3;" width="323.81" height="9.675"/>
<g>
</g>
<g>
</g>
<g>
</g>
<g>
</g>
<g>
</g>
<g>
</g>
<g>
</g>
<g>
</g>
<g>
</g>
<g>
</g>
<g>
</g>
<g>
</g>
<g>
</g>
<g>
</g>
<g>
</g>
</svg>
