<?xml version="1.0" encoding="utf-8"?>
<!-- Svg Vector Icons : http://www.onlinewebfonts.com/icon -->
<!DOCTYPE svg PUBLIC "-//W3C//DTD SVG 1.1//EN" "http://www.w3.org/Graphics/SVG/1.1/DTD/svg11.dtd">
<svg version="1.1" xmlns="http://www.w3.org/2000/svg" xmlns:xlink="http://www.w3.org/1999/xlink" x="0px" y="0px" viewBox="0 0 1000 1000" enable-background="new 0 0 1000 1000" xml:space="preserve">
<metadata> Svg Vector Icons : http://www.onlinewebfonts.com/icon </metadata>
<g><path d="M574,426.1c-25.5-25.5-25.5-66.8,0-92.3L759.8,148l-94.3-7.7c-16.1-1.4-30.3-8.3-40.9-18.9C611.5,108.4,604,89.9,605.7,70c3-35.9,34.4-62.7,70.3-59.7l234.9,19.1c31.9,2.7,57.1,27.9,59.8,59.7L989.8,324c2.9,35.9-23.8,67.4-59.8,70.3c-35.9,2.9-67.4-23.8-70.3-59.7l-7.7-94.3L666.2,426.1C640.7,451.6,599.4,451.6,574,426.1z M333.8,573.9L148,759.7l-7.7-94.3c-3-35.9-34.4-62.7-70.3-59.7c-35.9,2.9-62.7,34.4-59.8,70.3l19.1,234.9c2.6,31.8,27.9,57.1,59.8,59.7L324,989.8c35.9,2.9,67.4-23.8,70.3-59.7c1.7-19.9-5.8-38.3-18.9-51.5c-10.6-10.6-24.8-17.5-40.8-18.9l-94.3-7.7l185.8-185.8c25.5-25.5,25.5-66.8,0.1-92.3C400.6,548.4,359.3,548.4,333.8,573.9z M930,605.7c-19.9-1.7-38.3,5.8-51.4,18.9c-10.6,10.6-17.6,24.8-18.9,40.8l-7.7,94.3L666.2,573.9c-25.5-25.5-66.8-25.5-92.3,0c-25.5,25.5-25.5,66.8,0,92.3L759.7,852l-94.3,7.7c-35.9,3-62.6,34.5-59.7,70.3c3,35.9,34.4,62.7,70.4,59.8l234.8-19.2c31.8-2.6,57.1-27.9,59.8-59.7L989.7,676C992.6,640.1,965.9,608.6,930,605.7z M240.3,148l94.3-7.7c35.9-3,62.6-34.4,59.7-70.4c-3-35.9-34.4-62.6-70.3-59.7L89.1,29.4C57.3,32,32,57.3,29.3,89.1L10.2,324C7.3,359.9,34,391.4,70,394.3c19.8,1.6,38.3-5.8,51.4-18.9c10.6-10.6,17.6-24.7,18.9-40.8l7.7-94.3l185.8,185.8c25.4,25.5,66.8,25.5,92.2,0c25.5-25.5,25.5-66.8,0.1-92.3L240.3,148z"/></g>
</svg>